<svg xmlns="http://www.w3.org/2000/svg" xmlns:xlink="http://www.w3.org/1999/xlink" width="500" zoomAndPan="magnify" viewBox="0 0 375 374.999991" height="500" preserveAspectRatio="xMidYMid meet" version="1.0"><defs><g/></defs><rect x="-37.5" width="450" fill="#ffffff" y="-37.499999" height="449.999989" fill-opacity="1"/><rect x="-37.5" width="450" fill="#f1efe7" y="-37.499999" height="449.999989" fill-opacity="1"/><g fill="#000000" fill-opacity="1"><g transform="translate(42.101949, 203.608942)"><g><path d="M 18.90625 0 L -1.671875 -49.046875 L 10.9375 -49.046875 L 23.3125 -16.828125 L 35.671875 -49.046875 L 48.28125 -49.046875 L 27.703125 0 Z M 18.90625 0 "/></g></g></g><g fill="#000000" fill-opacity="1"><g transform="translate(83.115768, 203.608942)"><g><path d="M 34.421875 -13.796875 L 12.3125 -13.796875 C 12.3125 -11.648438 13.003906 -10.0625 14.390625 -9.03125 C 15.773438 -8 17.28125 -7.484375 18.90625 -7.484375 C 20.613281 -7.484375 21.960938 -7.710938 22.953125 -8.171875 C 23.941406 -8.628906 25.070312 -9.53125 26.34375 -10.875 L 33.953125 -7.078125 C 30.773438 -1.765625 25.503906 0.890625 18.140625 0.890625 C 13.535156 0.890625 9.585938 -0.679688 6.296875 -3.828125 C 3.015625 -6.984375 1.375 -10.78125 1.375 -15.21875 C 1.375 -19.65625 3.015625 -23.457031 6.296875 -26.625 C 9.585938 -29.800781 13.535156 -31.390625 18.140625 -31.390625 C 22.972656 -31.390625 26.90625 -29.992188 29.9375 -27.203125 C 32.96875 -24.410156 34.484375 -20.414062 34.484375 -15.21875 C 34.484375 -14.507812 34.460938 -14.035156 34.421875 -13.796875 Z M 12.609375 -19.625 L 24.203125 -19.625 C 23.960938 -21.207031 23.335938 -22.421875 22.328125 -23.265625 C 21.316406 -24.117188 20.019531 -24.546875 18.4375 -24.546875 C 16.6875 -24.546875 15.296875 -24.085938 14.265625 -23.171875 C 13.234375 -22.265625 12.679688 -21.082031 12.609375 -19.625 Z M 12.609375 -19.625 "/></g></g></g><g fill="#000000" fill-opacity="1"><g transform="translate(113.370458, 203.608942)"><g><path d="M 3.5625 0 L 3.5625 -30.5 L 14.09375 -30.5 L 14.09375 -27.28125 L 14.203125 -27.28125 C 16.941406 -30.019531 19.859375 -31.390625 22.953125 -31.390625 C 24.453125 -31.390625 25.945312 -31.191406 27.4375 -30.796875 C 28.925781 -30.398438 30.351562 -29.785156 31.71875 -28.953125 C 33.082031 -28.117188 34.191406 -26.9375 35.046875 -25.40625 C 35.898438 -23.882812 36.328125 -22.113281 36.328125 -20.09375 L 36.328125 0 L 25.796875 0 L 25.796875 -17.234375 C 25.796875 -18.828125 25.289062 -20.21875 24.28125 -21.40625 C 23.269531 -22.59375 21.953125 -23.1875 20.328125 -23.1875 C 18.742188 -23.1875 17.304688 -22.570312 16.015625 -21.34375 C 14.734375 -20.113281 14.09375 -18.742188 14.09375 -17.234375 L 14.09375 0 Z M 3.5625 0 "/></g></g></g><g fill="#000000" fill-opacity="1"><g transform="translate(147.072824, 203.608942)"><g><path d="M 5.640625 -3.765625 C 2.796875 -6.878906 1.375 -10.695312 1.375 -15.21875 C 1.375 -19.738281 2.796875 -23.5625 5.640625 -26.6875 C 8.492188 -29.820312 12.125 -31.390625 16.53125 -31.390625 C 20.570312 -31.390625 23.898438 -30.125 26.515625 -27.59375 L 26.515625 -51.125 L 37.046875 -51.125 L 37.046875 0 L 26.640625 0 L 26.640625 -3.453125 L 26.515625 -3.453125 C 23.898438 -0.554688 20.570312 0.890625 16.53125 0.890625 C 12.125 0.890625 8.492188 -0.660156 5.640625 -3.765625 Z M 14.59375 -20.390625 C 13.226562 -19.046875 12.546875 -17.320312 12.546875 -15.21875 C 12.546875 -13.113281 13.195312 -11.394531 14.5 -10.0625 C 15.8125 -8.738281 17.535156 -8.078125 19.671875 -8.078125 C 21.734375 -8.078125 23.425781 -8.75 24.75 -10.09375 C 26.082031 -11.445312 26.75 -13.15625 26.75 -15.21875 C 26.75 -17.320312 26.066406 -19.046875 24.703125 -20.390625 C 23.335938 -21.734375 21.660156 -22.40625 19.671875 -22.40625 C 17.648438 -22.40625 15.957031 -21.734375 14.59375 -20.390625 Z M 14.59375 -20.390625 "/></g></g></g><g fill="#000000" fill-opacity="1"><g transform="translate(182.082931, 203.608942)"><g><path d="M 6.453125 -3.625 C 3.066406 -6.632812 1.375 -10.5 1.375 -15.21875 C 1.375 -19.9375 3.132812 -23.8125 6.65625 -26.84375 C 10.1875 -29.875 14.546875 -31.390625 19.734375 -31.390625 C 24.847656 -31.390625 29.160156 -29.863281 32.671875 -26.8125 C 36.179688 -23.757812 37.9375 -19.894531 37.9375 -15.21875 C 37.9375 -10.539062 36.21875 -6.6875 32.78125 -3.65625 C 29.351562 -0.625 25.003906 0.890625 19.734375 0.890625 C 14.265625 0.890625 9.835938 -0.613281 6.453125 -3.625 Z M 14.59375 -20.390625 C 13.226562 -19.046875 12.546875 -17.320312 12.546875 -15.21875 C 12.546875 -13.113281 13.195312 -11.394531 14.5 -10.0625 C 15.8125 -8.738281 17.535156 -8.078125 19.671875 -8.078125 C 21.734375 -8.078125 23.425781 -8.75 24.75 -10.09375 C 26.082031 -11.445312 26.75 -13.15625 26.75 -15.21875 C 26.75 -17.320312 26.066406 -19.046875 24.703125 -20.390625 C 23.335938 -21.734375 21.660156 -22.40625 19.671875 -22.40625 C 17.648438 -22.40625 15.957031 -21.734375 14.59375 -20.390625 Z M 14.59375 -20.390625 "/></g></g></g><g fill="#000000" fill-opacity="1"><g transform="translate(215.785304, 203.608942)"><g><path d="M 3.5625 0 L 3.5625 -30.5 L 14.09375 -30.5 L 14.09375 -26.09375 L 14.203125 -26.09375 C 14.285156 -26.257812 14.414062 -26.457031 14.59375 -26.6875 C 14.769531 -26.925781 15.15625 -27.34375 15.75 -27.9375 C 16.34375 -28.53125 16.976562 -29.066406 17.65625 -29.546875 C 18.332031 -30.023438 19.203125 -30.453125 20.265625 -30.828125 C 21.335938 -31.203125 22.429688 -31.390625 23.546875 -31.390625 C 24.691406 -31.390625 25.816406 -31.226562 26.921875 -30.90625 C 28.035156 -30.59375 28.851562 -30.28125 29.375 -29.96875 L 30.203125 -29.484375 L 25.796875 -20.578125 C 24.492188 -21.679688 22.671875 -22.234375 20.328125 -22.234375 C 19.066406 -22.234375 17.976562 -21.957031 17.0625 -21.40625 C 16.15625 -20.851562 15.507812 -20.175781 15.125 -19.375 C 14.75 -18.582031 14.484375 -17.910156 14.328125 -17.359375 C 14.171875 -16.804688 14.09375 -16.367188 14.09375 -16.046875 L 14.09375 0 Z M 3.5625 0 "/></g></g></g><g fill="#000000" fill-opacity="1"><g transform="translate(239.798508, 203.608942)"><g><path d="M 5.640625 -3.765625 C 2.796875 -6.878906 1.375 -10.695312 1.375 -15.21875 C 1.375 -19.738281 2.796875 -23.5625 5.640625 -26.6875 C 8.492188 -29.820312 12.125 -31.390625 16.53125 -31.390625 C 20.570312 -31.390625 23.898438 -30.125 26.515625 -27.59375 L 26.515625 -30.5 L 37.046875 -30.5 L 37.046875 0 L 26.640625 0 L 26.640625 -3.453125 L 26.515625 -3.453125 C 23.898438 -0.554688 20.570312 0.890625 16.53125 0.890625 C 12.125 0.890625 8.492188 -0.660156 5.640625 -3.765625 Z M 14.59375 -20.390625 C 13.226562 -19.046875 12.546875 -17.320312 12.546875 -15.21875 C 12.546875 -13.113281 13.195312 -11.394531 14.5 -10.0625 C 15.8125 -8.738281 17.535156 -8.078125 19.671875 -8.078125 C 21.734375 -8.078125 23.425781 -8.75 24.75 -10.09375 C 26.082031 -11.445312 26.75 -13.15625 26.75 -15.21875 C 26.75 -17.320312 26.066406 -19.046875 24.703125 -20.390625 C 23.335938 -21.734375 21.660156 -22.40625 19.671875 -22.40625 C 17.648438 -22.40625 15.957031 -21.734375 14.59375 -20.390625 Z M 14.59375 -20.390625 "/></g></g></g><g fill="#000000" fill-opacity="1"><g transform="translate(274.808608, 203.608942)"><g><path d="M 49.46875 0 L 35.015625 0 L 23.421875 -16.703125 L 11.828125 0 L -2.015625 0 L 16.53125 -26.390625 L 1.0625 -49.046875 L 14.390625 -49.046875 L 23.421875 -35.671875 L 32.46875 -49.046875 L 46.375 -49.046875 L 30.328125 -26.390625 Z M 49.46875 0 "/></g></g></g><g fill="#000000" fill-opacity="1"><g transform="translate(316.661872, 203.608942)"><g/></g></g><g fill="#000000" fill-opacity="1"><g transform="translate(61.058047, 213.661071)"><g><path d="M 6.40625 -0.640625 C 6.425781 -0.578125 6.4375 -0.507812 6.4375 -0.4375 C 6.4375 -0.300781 6.390625 -0.1875 6.296875 -0.09375 C 6.203125 -0.0078125 6.09375 0.03125 5.96875 0.03125 C 5.875 0.03125 5.785156 0.00390625 5.703125 -0.046875 C 5.628906 -0.109375 5.566406 -0.191406 5.515625 -0.296875 L 4.875 -1.8125 L 1.6875 -1.8125 L 1.0625 -0.28125 C 1.03125 -0.1875 0.972656 -0.109375 0.890625 -0.046875 C 0.816406 0.00390625 0.726562 0.03125 0.625 0.03125 C 0.476562 0.03125 0.367188 -0.00390625 0.296875 -0.078125 C 0.222656 -0.160156 0.1875 -0.265625 0.1875 -0.390625 C 0.1875 -0.421875 0.191406 -0.476562 0.203125 -0.5625 L 2.84375 -6.9375 C 2.882812 -7.039062 2.945312 -7.117188 3.03125 -7.171875 C 3.125 -7.234375 3.222656 -7.257812 3.328125 -7.25 C 3.429688 -7.25 3.523438 -7.21875 3.609375 -7.15625 C 3.691406 -7.101562 3.75 -7.03125 3.78125 -6.9375 Z M 2.078125 -2.75 L 4.484375 -2.75 L 3.28125 -5.640625 Z M 2.078125 -2.75 "/></g></g></g><g fill="#000000" fill-opacity="1"><g transform="translate(70.361282, 213.661071)"><g/></g></g><g fill="#000000" fill-opacity="1"><g transform="translate(75.904743, 213.661071)"><g><path d="M 3.4375 -5.5 C 3.90625 -5.5 4.328125 -5.378906 4.703125 -5.140625 C 5.085938 -4.898438 5.390625 -4.566406 5.609375 -4.140625 C 5.828125 -3.710938 5.9375 -3.234375 5.9375 -2.703125 C 5.9375 -2.160156 5.828125 -1.675781 5.609375 -1.25 C 5.390625 -0.832031 5.085938 -0.503906 4.703125 -0.265625 C 4.328125 -0.0234375 3.914062 0.09375 3.46875 0.09375 C 3.101562 0.09375 2.765625 0.015625 2.453125 -0.140625 C 2.148438 -0.296875 1.90625 -0.488281 1.71875 -0.71875 L 1.71875 1.5625 C 1.71875 1.707031 1.671875 1.828125 1.578125 1.921875 C 1.484375 2.015625 1.363281 2.0625 1.21875 2.0625 C 1.082031 2.0625 0.96875 2.015625 0.875 1.921875 C 0.78125 1.828125 0.734375 1.707031 0.734375 1.5625 L 0.734375 -4.921875 C 0.734375 -5.066406 0.773438 -5.1875 0.859375 -5.28125 C 0.953125 -5.375 1.070312 -5.421875 1.21875 -5.421875 C 1.363281 -5.421875 1.484375 -5.375 1.578125 -5.28125 C 1.671875 -5.1875 1.71875 -5.066406 1.71875 -4.921875 L 1.71875 -4.625 C 1.875 -4.863281 2.109375 -5.066406 2.421875 -5.234375 C 2.742188 -5.410156 3.082031 -5.5 3.4375 -5.5 Z M 3.328125 -0.8125 C 3.648438 -0.8125 3.9375 -0.894531 4.1875 -1.0625 C 4.4375 -1.226562 4.628906 -1.453125 4.765625 -1.734375 C 4.910156 -2.023438 4.984375 -2.347656 4.984375 -2.703125 C 4.984375 -3.054688 4.910156 -3.375 4.765625 -3.65625 C 4.628906 -3.945312 4.4375 -4.175781 4.1875 -4.34375 C 3.9375 -4.507812 3.648438 -4.59375 3.328125 -4.59375 C 3.003906 -4.59375 2.710938 -4.507812 2.453125 -4.34375 C 2.203125 -4.1875 2.003906 -3.960938 1.859375 -3.671875 C 1.722656 -3.378906 1.65625 -3.054688 1.65625 -2.703125 C 1.65625 -2.347656 1.722656 -2.023438 1.859375 -1.734375 C 2.003906 -1.441406 2.203125 -1.210938 2.453125 -1.046875 C 2.710938 -0.890625 3.003906 -0.8125 3.328125 -0.8125 Z M 3.328125 -0.8125 "/></g></g></g><g fill="#000000" fill-opacity="1"><g transform="translate(84.919564, 213.661071)"><g><path d="M 5.84375 -2.703125 C 5.84375 -2.160156 5.722656 -1.675781 5.484375 -1.25 C 5.242188 -0.832031 4.914062 -0.5 4.5 -0.25 C 4.082031 -0.0078125 3.625 0.109375 3.125 0.109375 C 2.625 0.109375 2.164062 -0.0078125 1.75 -0.25 C 1.332031 -0.5 1.003906 -0.832031 0.765625 -1.25 C 0.523438 -1.675781 0.40625 -2.160156 0.40625 -2.703125 C 0.40625 -3.234375 0.523438 -3.71875 0.765625 -4.15625 C 1.003906 -4.59375 1.332031 -4.929688 1.75 -5.171875 C 2.164062 -5.410156 2.625 -5.53125 3.125 -5.53125 C 3.625 -5.53125 4.082031 -5.410156 4.5 -5.171875 C 4.914062 -4.929688 5.242188 -4.59375 5.484375 -4.15625 C 5.722656 -3.71875 5.84375 -3.234375 5.84375 -2.703125 Z M 4.875 -2.703125 C 4.875 -3.078125 4.796875 -3.410156 4.640625 -3.703125 C 4.484375 -3.992188 4.269531 -4.21875 4 -4.375 C 3.738281 -4.539062 3.445312 -4.625 3.125 -4.625 C 2.800781 -4.625 2.503906 -4.539062 2.234375 -4.375 C 1.972656 -4.21875 1.765625 -3.992188 1.609375 -3.703125 C 1.453125 -3.410156 1.375 -3.078125 1.375 -2.703125 C 1.375 -2.335938 1.453125 -2.007812 1.609375 -1.71875 C 1.765625 -1.4375 1.972656 -1.210938 2.234375 -1.046875 C 2.503906 -0.878906 2.800781 -0.796875 3.125 -0.796875 C 3.445312 -0.796875 3.738281 -0.878906 4 -1.046875 C 4.269531 -1.210938 4.484375 -1.4375 4.640625 -1.71875 C 4.796875 -2.007812 4.875 -2.335938 4.875 -2.703125 Z M 4.875 -2.703125 "/></g></g></g><g fill="#000000" fill-opacity="1"><g transform="translate(93.851976, 213.661071)"><g><path d="M 7.046875 -5.453125 C 7.171875 -5.453125 7.28125 -5.40625 7.375 -5.3125 C 7.46875 -5.21875 7.515625 -5.097656 7.515625 -4.953125 C 7.515625 -4.910156 7.503906 -4.847656 7.484375 -4.765625 L 5.90625 -0.3125 C 5.863281 -0.195312 5.789062 -0.113281 5.6875 -0.0625 C 5.59375 -0.0078125 5.492188 0.0078125 5.390625 0 C 5.203125 -0.0078125 5.054688 -0.113281 4.953125 -0.3125 L 3.890625 -3.109375 L 2.890625 -0.3125 C 2.859375 -0.21875 2.800781 -0.144531 2.71875 -0.09375 C 2.644531 -0.0390625 2.5625 -0.0078125 2.46875 0 C 2.375 0.0078125 2.273438 -0.0078125 2.171875 -0.0625 C 2.066406 -0.125 2 -0.207031 1.96875 -0.3125 L 0.375 -4.765625 C 0.351562 -4.828125 0.34375 -4.890625 0.34375 -4.953125 C 0.34375 -5.097656 0.382812 -5.21875 0.46875 -5.3125 C 0.5625 -5.40625 0.679688 -5.453125 0.828125 -5.453125 C 1.054688 -5.453125 1.207031 -5.347656 1.28125 -5.140625 L 2.5 -1.671875 L 3.484375 -4.234375 C 3.566406 -4.441406 3.71875 -4.546875 3.9375 -4.546875 C 4.144531 -4.546875 4.285156 -4.441406 4.359375 -4.234375 L 5.359375 -1.71875 L 6.5625 -5.140625 C 6.644531 -5.347656 6.804688 -5.453125 7.046875 -5.453125 Z M 7.046875 -5.453125 "/></g></g></g><g fill="#000000" fill-opacity="1"><g transform="translate(104.380998, 213.661071)"><g><path d="M 5.46875 -2.90625 C 5.46875 -2.78125 5.414062 -2.675781 5.3125 -2.59375 C 5.21875 -2.507812 5.109375 -2.46875 4.984375 -2.46875 L 1.34375 -2.46875 C 1.394531 -1.96875 1.585938 -1.5625 1.921875 -1.25 C 2.253906 -0.945312 2.660156 -0.796875 3.140625 -0.796875 C 3.472656 -0.796875 3.742188 -0.84375 3.953125 -0.9375 C 4.160156 -1.039062 4.34375 -1.164062 4.5 -1.3125 C 4.601562 -1.375 4.703125 -1.40625 4.796875 -1.40625 C 4.910156 -1.40625 5.003906 -1.363281 5.078125 -1.28125 C 5.160156 -1.207031 5.203125 -1.113281 5.203125 -1 C 5.203125 -0.851562 5.132812 -0.722656 5 -0.609375 C 4.800781 -0.410156 4.535156 -0.238281 4.203125 -0.09375 C 3.878906 0.0390625 3.546875 0.109375 3.203125 0.109375 C 2.640625 0.109375 2.144531 -0.00390625 1.71875 -0.234375 C 1.300781 -0.472656 0.976562 -0.800781 0.75 -1.21875 C 0.519531 -1.644531 0.40625 -2.125 0.40625 -2.65625 C 0.40625 -3.226562 0.519531 -3.734375 0.75 -4.171875 C 0.988281 -4.609375 1.300781 -4.941406 1.6875 -5.171875 C 2.082031 -5.410156 2.503906 -5.53125 2.953125 -5.53125 C 3.390625 -5.53125 3.800781 -5.414062 4.1875 -5.1875 C 4.570312 -4.957031 4.878906 -4.644531 5.109375 -4.25 C 5.347656 -3.851562 5.46875 -3.40625 5.46875 -2.90625 Z M 2.953125 -4.625 C 2.566406 -4.625 2.234375 -4.515625 1.953125 -4.296875 C 1.671875 -4.078125 1.484375 -3.742188 1.390625 -3.296875 L 4.4375 -3.296875 L 4.4375 -3.375 C 4.40625 -3.738281 4.238281 -4.035156 3.9375 -4.265625 C 3.644531 -4.503906 3.316406 -4.625 2.953125 -4.625 Z M 2.953125 -4.625 "/></g></g></g><g fill="#000000" fill-opacity="1"><g transform="translate(112.942574, 213.661071)"><g><path d="M 3.421875 -5.53125 C 3.597656 -5.53125 3.75 -5.484375 3.875 -5.390625 C 4.007812 -5.296875 4.078125 -5.179688 4.078125 -5.046875 C 4.078125 -4.878906 4.035156 -4.75 3.953125 -4.65625 C 3.867188 -4.570312 3.765625 -4.53125 3.640625 -4.53125 C 3.578125 -4.53125 3.484375 -4.550781 3.359375 -4.59375 C 3.210938 -4.644531 3.097656 -4.671875 3.015625 -4.671875 C 2.804688 -4.671875 2.597656 -4.597656 2.390625 -4.453125 C 2.191406 -4.304688 2.03125 -4.101562 1.90625 -3.84375 C 1.78125 -3.582031 1.71875 -3.296875 1.71875 -2.984375 L 1.71875 -0.5 C 1.71875 -0.351562 1.671875 -0.234375 1.578125 -0.140625 C 1.484375 -0.046875 1.363281 0 1.21875 0 C 1.070312 0 0.953125 -0.046875 0.859375 -0.140625 C 0.773438 -0.234375 0.734375 -0.351562 0.734375 -0.5 L 0.734375 -4.90625 C 0.734375 -5.039062 0.78125 -5.15625 0.875 -5.25 C 0.96875 -5.351562 1.082031 -5.40625 1.21875 -5.40625 C 1.363281 -5.40625 1.484375 -5.351562 1.578125 -5.25 C 1.671875 -5.15625 1.71875 -5.039062 1.71875 -4.90625 L 1.71875 -4.390625 C 1.863281 -4.722656 2.085938 -4.992188 2.390625 -5.203125 C 2.691406 -5.410156 3.035156 -5.519531 3.421875 -5.53125 Z M 3.421875 -5.53125 "/></g></g></g><g fill="#000000" fill-opacity="1"><g transform="translate(119.88694, 213.661071)"><g><path d="M 3.046875 -6.75 C 2.816406 -6.75 2.644531 -6.675781 2.53125 -6.53125 C 2.425781 -6.394531 2.375 -6.226562 2.375 -6.03125 L 2.375 -5.3125 L 3.40625 -5.3125 C 3.539062 -5.3125 3.648438 -5.265625 3.734375 -5.171875 C 3.828125 -5.085938 3.875 -4.984375 3.875 -4.859375 C 3.875 -4.722656 3.828125 -4.613281 3.734375 -4.53125 C 3.648438 -4.445312 3.539062 -4.40625 3.40625 -4.40625 L 2.375 -4.40625 L 2.375 -0.5 C 2.375 -0.351562 2.328125 -0.234375 2.234375 -0.140625 C 2.148438 -0.046875 2.035156 0 1.890625 0 C 1.753906 0 1.640625 -0.046875 1.546875 -0.140625 C 1.453125 -0.234375 1.40625 -0.351562 1.40625 -0.5 L 1.40625 -4.40625 L 0.765625 -4.40625 C 0.628906 -4.40625 0.515625 -4.445312 0.421875 -4.53125 C 0.335938 -4.613281 0.296875 -4.722656 0.296875 -4.859375 C 0.296875 -4.984375 0.335938 -5.085938 0.421875 -5.171875 C 0.515625 -5.265625 0.628906 -5.3125 0.765625 -5.3125 L 1.40625 -5.3125 L 1.40625 -6.03125 C 1.40625 -6.507812 1.554688 -6.890625 1.859375 -7.171875 C 2.171875 -7.460938 2.609375 -7.609375 3.171875 -7.609375 C 3.410156 -7.609375 3.617188 -7.566406 3.796875 -7.484375 C 3.972656 -7.398438 4.0625 -7.269531 4.0625 -7.09375 C 4.0625 -6.96875 4.019531 -6.859375 3.9375 -6.765625 C 3.863281 -6.679688 3.769531 -6.640625 3.65625 -6.640625 C 3.632812 -6.640625 3.5625 -6.65625 3.4375 -6.6875 C 3.28125 -6.726562 3.148438 -6.75 3.046875 -6.75 Z M 3.046875 -6.75 "/></g></g></g><g fill="#000000" fill-opacity="1"><g transform="translate(126.594391, 213.661071)"><g><path d="M 4.75 -5.40625 C 4.894531 -5.40625 5.015625 -5.351562 5.109375 -5.25 C 5.203125 -5.15625 5.25 -5.039062 5.25 -4.90625 L 5.25 -2.171875 C 5.25 -1.453125 5.050781 -0.894531 4.65625 -0.5 C 4.257812 -0.101562 3.703125 0.09375 2.984375 0.09375 C 2.265625 0.09375 1.707031 -0.101562 1.3125 -0.5 C 0.925781 -0.894531 0.734375 -1.453125 0.734375 -2.171875 L 0.734375 -4.90625 C 0.734375 -5.039062 0.78125 -5.15625 0.875 -5.25 C 0.96875 -5.351562 1.082031 -5.40625 1.21875 -5.40625 C 1.363281 -5.40625 1.484375 -5.351562 1.578125 -5.25 C 1.671875 -5.15625 1.71875 -5.039062 1.71875 -4.90625 L 1.71875 -2.171875 C 1.71875 -1.265625 2.140625 -0.8125 2.984375 -0.8125 C 3.398438 -0.8125 3.71875 -0.925781 3.9375 -1.15625 C 4.15625 -1.382812 4.265625 -1.722656 4.265625 -2.171875 L 4.265625 -4.90625 C 4.265625 -5.039062 4.3125 -5.15625 4.40625 -5.25 C 4.5 -5.351562 4.613281 -5.40625 4.75 -5.40625 Z M 4.75 -5.40625 "/></g></g></g><g fill="#000000" fill-opacity="1"><g transform="translate(135.258975, 213.661071)"><g><path d="M 1.796875 -0.5 C 1.796875 -0.351562 1.742188 -0.234375 1.640625 -0.140625 C 1.546875 -0.046875 1.429688 0 1.296875 0 C 1.160156 0 1.046875 -0.046875 0.953125 -0.140625 C 0.859375 -0.234375 0.8125 -0.351562 0.8125 -0.5 L 0.8125 -7.140625 C 0.8125 -7.273438 0.859375 -7.390625 0.953125 -7.484375 C 1.054688 -7.578125 1.175781 -7.625 1.3125 -7.625 C 1.445312 -7.625 1.5625 -7.578125 1.65625 -7.484375 C 1.75 -7.390625 1.796875 -7.273438 1.796875 -7.140625 Z M 1.796875 -0.5 "/></g></g></g><g fill="#000000" fill-opacity="1"><g transform="translate(140.55522, 213.661071)"><g/></g></g><g fill="#000000" fill-opacity="1"><g transform="translate(146.098681, 213.661071)"><g><path d="M 4.859375 -5.453125 C 4.984375 -5.453125 5.09375 -5.410156 5.1875 -5.328125 C 5.28125 -5.242188 5.328125 -5.140625 5.328125 -5.015625 C 5.328125 -4.953125 5.300781 -4.867188 5.25 -4.765625 L 3.296875 -0.3125 C 3.253906 -0.21875 3.191406 -0.144531 3.109375 -0.09375 C 3.035156 -0.0390625 2.953125 -0.0078125 2.859375 0 C 2.753906 0.0078125 2.65625 -0.0078125 2.5625 -0.0625 C 2.46875 -0.113281 2.394531 -0.195312 2.34375 -0.3125 L 0.390625 -4.765625 C 0.359375 -4.867188 0.34375 -4.953125 0.34375 -5.015625 C 0.34375 -5.128906 0.382812 -5.226562 0.46875 -5.3125 C 0.5625 -5.40625 0.679688 -5.453125 0.828125 -5.453125 C 0.929688 -5.453125 1.023438 -5.425781 1.109375 -5.375 C 1.191406 -5.320312 1.253906 -5.242188 1.296875 -5.140625 L 2.859375 -1.53125 L 4.40625 -5.140625 C 4.507812 -5.347656 4.660156 -5.453125 4.859375 -5.453125 Z M 4.859375 -5.453125 "/></g></g></g><g fill="#000000" fill-opacity="1"><g transform="translate(154.433641, 213.661071)"><g><path d="M 5.46875 -2.90625 C 5.46875 -2.78125 5.414062 -2.675781 5.3125 -2.59375 C 5.21875 -2.507812 5.109375 -2.46875 4.984375 -2.46875 L 1.34375 -2.46875 C 1.394531 -1.96875 1.585938 -1.5625 1.921875 -1.25 C 2.253906 -0.945312 2.660156 -0.796875 3.140625 -0.796875 C 3.472656 -0.796875 3.742188 -0.84375 3.953125 -0.9375 C 4.160156 -1.039062 4.34375 -1.164062 4.5 -1.3125 C 4.601562 -1.375 4.703125 -1.40625 4.796875 -1.40625 C 4.910156 -1.40625 5.003906 -1.363281 5.078125 -1.28125 C 5.160156 -1.207031 5.203125 -1.113281 5.203125 -1 C 5.203125 -0.851562 5.132812 -0.722656 5 -0.609375 C 4.800781 -0.410156 4.535156 -0.238281 4.203125 -0.09375 C 3.878906 0.0390625 3.546875 0.109375 3.203125 0.109375 C 2.640625 0.109375 2.144531 -0.00390625 1.71875 -0.234375 C 1.300781 -0.472656 0.976562 -0.800781 0.75 -1.21875 C 0.519531 -1.644531 0.40625 -2.125 0.40625 -2.65625 C 0.40625 -3.226562 0.519531 -3.734375 0.75 -4.171875 C 0.988281 -4.609375 1.300781 -4.941406 1.6875 -5.171875 C 2.082031 -5.410156 2.503906 -5.53125 2.953125 -5.53125 C 3.390625 -5.53125 3.800781 -5.414062 4.1875 -5.1875 C 4.570312 -4.957031 4.878906 -4.644531 5.109375 -4.25 C 5.347656 -3.851562 5.46875 -3.40625 5.46875 -2.90625 Z M 2.953125 -4.625 C 2.566406 -4.625 2.234375 -4.515625 1.953125 -4.296875 C 1.671875 -4.078125 1.484375 -3.742188 1.390625 -3.296875 L 4.4375 -3.296875 L 4.4375 -3.375 C 4.40625 -3.738281 4.238281 -4.035156 3.9375 -4.265625 C 3.644531 -4.503906 3.316406 -4.625 2.953125 -4.625 Z M 2.953125 -4.625 "/></g></g></g><g fill="#000000" fill-opacity="1"><g transform="translate(162.995223, 213.661071)"><g><path d="M 3.484375 -5.53125 C 4.722656 -5.53125 5.34375 -4.785156 5.34375 -3.296875 L 5.34375 -0.5 C 5.34375 -0.351562 5.296875 -0.234375 5.203125 -0.140625 C 5.109375 -0.046875 4.988281 0 4.84375 0 C 4.707031 0 4.59375 -0.046875 4.5 -0.140625 C 4.40625 -0.234375 4.359375 -0.351562 4.359375 -0.5 L 4.359375 -3.296875 C 4.359375 -3.691406 4.265625 -4.007812 4.078125 -4.25 C 3.898438 -4.5 3.597656 -4.625 3.171875 -4.625 C 2.898438 -4.625 2.648438 -4.5625 2.421875 -4.4375 C 2.203125 -4.320312 2.03125 -4.160156 1.90625 -3.953125 C 1.78125 -3.753906 1.71875 -3.535156 1.71875 -3.296875 L 1.71875 -0.5 C 1.71875 -0.351562 1.671875 -0.234375 1.578125 -0.140625 C 1.484375 -0.046875 1.363281 0 1.21875 0 C 1.070312 0 0.953125 -0.046875 0.859375 -0.140625 C 0.773438 -0.234375 0.734375 -0.351562 0.734375 -0.5 L 0.734375 -4.90625 C 0.734375 -5.039062 0.78125 -5.15625 0.875 -5.25 C 0.96875 -5.351562 1.082031 -5.40625 1.21875 -5.40625 C 1.363281 -5.40625 1.484375 -5.351562 1.578125 -5.25 C 1.671875 -5.15625 1.71875 -5.039062 1.71875 -4.90625 L 1.71875 -4.546875 C 1.894531 -4.816406 2.140625 -5.046875 2.453125 -5.234375 C 2.773438 -5.429688 3.117188 -5.53125 3.484375 -5.53125 Z M 3.484375 -5.53125 "/></g></g></g><g fill="#000000" fill-opacity="1"><g transform="translate(171.752516, 213.661071)"><g><path d="M 5.109375 -7.625 C 5.253906 -7.625 5.375 -7.578125 5.46875 -7.484375 C 5.5625 -7.398438 5.609375 -7.285156 5.609375 -7.140625 L 5.609375 -0.5 C 5.609375 -0.351562 5.5625 -0.234375 5.46875 -0.140625 C 5.375 -0.046875 5.253906 0 5.109375 0 C 4.972656 0 4.859375 -0.046875 4.765625 -0.140625 C 4.671875 -0.234375 4.625 -0.351562 4.625 -0.5 L 4.625 -0.78125 C 4.457031 -0.53125 4.21875 -0.316406 3.90625 -0.140625 C 3.59375 0.0234375 3.253906 0.109375 2.890625 0.109375 C 2.429688 0.109375 2.007812 -0.0078125 1.625 -0.25 C 1.25 -0.5 0.953125 -0.835938 0.734375 -1.265625 C 0.515625 -1.691406 0.40625 -2.175781 0.40625 -2.71875 C 0.40625 -3.25 0.507812 -3.726562 0.71875 -4.15625 C 0.9375 -4.59375 1.234375 -4.929688 1.609375 -5.171875 C 1.992188 -5.410156 2.410156 -5.53125 2.859375 -5.53125 C 3.222656 -5.53125 3.5625 -5.453125 3.875 -5.296875 C 4.1875 -5.148438 4.4375 -4.957031 4.625 -4.71875 L 4.625 -7.140625 C 4.625 -7.285156 4.671875 -7.398438 4.765625 -7.484375 C 4.859375 -7.578125 4.972656 -7.625 5.109375 -7.625 Z M 3.015625 -0.796875 C 3.335938 -0.796875 3.625 -0.878906 3.875 -1.046875 C 4.125 -1.210938 4.316406 -1.441406 4.453125 -1.734375 C 4.597656 -2.023438 4.671875 -2.351562 4.671875 -2.71875 C 4.671875 -3.070312 4.597656 -3.394531 4.453125 -3.6875 C 4.316406 -3.976562 4.125 -4.207031 3.875 -4.375 C 3.625 -4.539062 3.335938 -4.625 3.015625 -4.625 C 2.691406 -4.625 2.40625 -4.539062 2.15625 -4.375 C 1.90625 -4.207031 1.707031 -3.976562 1.5625 -3.6875 C 1.414062 -3.394531 1.34375 -3.070312 1.34375 -2.71875 C 1.34375 -2.351562 1.414062 -2.023438 1.5625 -1.734375 C 1.707031 -1.441406 1.90625 -1.210938 2.15625 -1.046875 C 2.40625 -0.878906 2.691406 -0.796875 3.015625 -0.796875 Z M 3.015625 -0.796875 "/></g></g></g><g fill="#000000" fill-opacity="1"><g transform="translate(180.767336, 213.661071)"><g><path d="M 5.84375 -2.703125 C 5.84375 -2.160156 5.722656 -1.675781 5.484375 -1.25 C 5.242188 -0.832031 4.914062 -0.5 4.5 -0.25 C 4.082031 -0.0078125 3.625 0.109375 3.125 0.109375 C 2.625 0.109375 2.164062 -0.0078125 1.75 -0.25 C 1.332031 -0.5 1.003906 -0.832031 0.765625 -1.25 C 0.523438 -1.675781 0.40625 -2.160156 0.40625 -2.703125 C 0.40625 -3.234375 0.523438 -3.71875 0.765625 -4.15625 C 1.003906 -4.59375 1.332031 -4.929688 1.75 -5.171875 C 2.164062 -5.410156 2.625 -5.53125 3.125 -5.53125 C 3.625 -5.53125 4.082031 -5.410156 4.5 -5.171875 C 4.914062 -4.929688 5.242188 -4.59375 5.484375 -4.15625 C 5.722656 -3.71875 5.84375 -3.234375 5.84375 -2.703125 Z M 4.875 -2.703125 C 4.875 -3.078125 4.796875 -3.410156 4.640625 -3.703125 C 4.484375 -3.992188 4.269531 -4.21875 4 -4.375 C 3.738281 -4.539062 3.445312 -4.625 3.125 -4.625 C 2.800781 -4.625 2.503906 -4.539062 2.234375 -4.375 C 1.972656 -4.21875 1.765625 -3.992188 1.609375 -3.703125 C 1.453125 -3.410156 1.375 -3.078125 1.375 -2.703125 C 1.375 -2.335938 1.453125 -2.007812 1.609375 -1.71875 C 1.765625 -1.4375 1.972656 -1.210938 2.234375 -1.046875 C 2.503906 -0.878906 2.800781 -0.796875 3.125 -0.796875 C 3.445312 -0.796875 3.738281 -0.878906 4 -1.046875 C 4.269531 -1.210938 4.484375 -1.4375 4.640625 -1.71875 C 4.796875 -2.007812 4.875 -2.335938 4.875 -2.703125 Z M 4.875 -2.703125 "/></g></g></g><g fill="#000000" fill-opacity="1"><g transform="translate(189.699747, 213.661071)"><g><path d="M 3.421875 -5.53125 C 3.597656 -5.53125 3.75 -5.484375 3.875 -5.390625 C 4.007812 -5.296875 4.078125 -5.179688 4.078125 -5.046875 C 4.078125 -4.878906 4.035156 -4.75 3.953125 -4.65625 C 3.867188 -4.570312 3.765625 -4.53125 3.640625 -4.53125 C 3.578125 -4.53125 3.484375 -4.550781 3.359375 -4.59375 C 3.210938 -4.644531 3.097656 -4.671875 3.015625 -4.671875 C 2.804688 -4.671875 2.597656 -4.597656 2.390625 -4.453125 C 2.191406 -4.304688 2.03125 -4.101562 1.90625 -3.84375 C 1.78125 -3.582031 1.71875 -3.296875 1.71875 -2.984375 L 1.71875 -0.5 C 1.71875 -0.351562 1.671875 -0.234375 1.578125 -0.140625 C 1.484375 -0.046875 1.363281 0 1.21875 0 C 1.070312 0 0.953125 -0.046875 0.859375 -0.140625 C 0.773438 -0.234375 0.734375 -0.351562 0.734375 -0.5 L 0.734375 -4.90625 C 0.734375 -5.039062 0.78125 -5.15625 0.875 -5.25 C 0.96875 -5.351562 1.082031 -5.40625 1.21875 -5.40625 C 1.363281 -5.40625 1.484375 -5.351562 1.578125 -5.25 C 1.671875 -5.15625 1.71875 -5.039062 1.71875 -4.90625 L 1.71875 -4.390625 C 1.863281 -4.722656 2.085938 -4.992188 2.390625 -5.203125 C 2.691406 -5.410156 3.035156 -5.519531 3.421875 -5.53125 Z M 3.421875 -5.53125 "/></g></g></g><g fill="#000000" fill-opacity="1"><g transform="translate(196.644113, 213.661071)"><g><path d="M 1.046875 -2.46875 C 0.898438 -2.46875 0.78125 -2.515625 0.6875 -2.609375 C 0.59375 -2.703125 0.546875 -2.820312 0.546875 -2.96875 C 0.546875 -3.101562 0.59375 -3.210938 0.6875 -3.296875 C 0.78125 -3.390625 0.898438 -3.4375 1.046875 -3.4375 L 3.015625 -3.4375 C 3.160156 -3.4375 3.273438 -3.390625 3.359375 -3.296875 C 3.453125 -3.210938 3.5 -3.097656 3.5 -2.953125 C 3.5 -2.816406 3.453125 -2.703125 3.359375 -2.609375 C 3.273438 -2.515625 3.160156 -2.46875 3.015625 -2.46875 Z M 1.046875 -2.46875 "/></g></g></g><g fill="#000000" fill-opacity="1"><g transform="translate(203.392762, 213.661071)"><g><path d="M 3.078125 -5.53125 C 3.617188 -5.53125 4.070312 -5.441406 4.4375 -5.265625 C 4.800781 -5.097656 4.984375 -4.878906 4.984375 -4.609375 C 4.984375 -4.492188 4.941406 -4.390625 4.859375 -4.296875 C 4.785156 -4.203125 4.691406 -4.15625 4.578125 -4.15625 C 4.484375 -4.15625 4.410156 -4.164062 4.359375 -4.1875 C 4.316406 -4.21875 4.25 -4.265625 4.15625 -4.328125 C 4.113281 -4.367188 4.046875 -4.414062 3.953125 -4.46875 C 3.878906 -4.507812 3.765625 -4.546875 3.609375 -4.578125 C 3.453125 -4.609375 3.316406 -4.625 3.203125 -4.625 C 2.835938 -4.625 2.515625 -4.539062 2.234375 -4.375 C 1.960938 -4.207031 1.75 -3.976562 1.59375 -3.6875 C 1.445312 -3.394531 1.375 -3.070312 1.375 -2.71875 C 1.375 -2.351562 1.445312 -2.023438 1.59375 -1.734375 C 1.75 -1.441406 1.957031 -1.210938 2.21875 -1.046875 C 2.488281 -0.878906 2.796875 -0.796875 3.140625 -0.796875 C 3.503906 -0.796875 3.796875 -0.851562 4.015625 -0.96875 C 4.054688 -1 4.117188 -1.046875 4.203125 -1.109375 C 4.273438 -1.160156 4.335938 -1.195312 4.390625 -1.21875 C 4.441406 -1.25 4.503906 -1.265625 4.578125 -1.265625 C 4.710938 -1.265625 4.816406 -1.222656 4.890625 -1.140625 C 4.972656 -1.054688 5.015625 -0.941406 5.015625 -0.796875 C 5.015625 -0.660156 4.921875 -0.519531 4.734375 -0.375 C 4.554688 -0.238281 4.316406 -0.125 4.015625 -0.03125 C 3.710938 0.0625 3.382812 0.109375 3.03125 0.109375 C 2.507812 0.109375 2.046875 -0.0078125 1.640625 -0.25 C 1.242188 -0.5 0.9375 -0.835938 0.71875 -1.265625 C 0.507812 -1.703125 0.40625 -2.1875 0.40625 -2.71875 C 0.40625 -3.238281 0.515625 -3.710938 0.734375 -4.140625 C 0.960938 -4.578125 1.28125 -4.914062 1.6875 -5.15625 C 2.09375 -5.40625 2.554688 -5.53125 3.078125 -5.53125 Z M 3.078125 -5.53125 "/></g></g></g><g fill="#000000" fill-opacity="1"><g transform="translate(211.377499, 213.661071)"><g><path d="M 5.46875 -2.90625 C 5.46875 -2.78125 5.414062 -2.675781 5.3125 -2.59375 C 5.21875 -2.507812 5.109375 -2.46875 4.984375 -2.46875 L 1.34375 -2.46875 C 1.394531 -1.96875 1.585938 -1.5625 1.921875 -1.25 C 2.253906 -0.945312 2.660156 -0.796875 3.140625 -0.796875 C 3.472656 -0.796875 3.742188 -0.84375 3.953125 -0.9375 C 4.160156 -1.039062 4.34375 -1.164062 4.5 -1.3125 C 4.601562 -1.375 4.703125 -1.40625 4.796875 -1.40625 C 4.910156 -1.40625 5.003906 -1.363281 5.078125 -1.28125 C 5.160156 -1.207031 5.203125 -1.113281 5.203125 -1 C 5.203125 -0.851562 5.132812 -0.722656 5 -0.609375 C 4.800781 -0.410156 4.535156 -0.238281 4.203125 -0.09375 C 3.878906 0.0390625 3.546875 0.109375 3.203125 0.109375 C 2.640625 0.109375 2.144531 -0.00390625 1.71875 -0.234375 C 1.300781 -0.472656 0.976562 -0.800781 0.75 -1.21875 C 0.519531 -1.644531 0.40625 -2.125 0.40625 -2.65625 C 0.40625 -3.226562 0.519531 -3.734375 0.75 -4.171875 C 0.988281 -4.609375 1.300781 -4.941406 1.6875 -5.171875 C 2.082031 -5.410156 2.503906 -5.53125 2.953125 -5.53125 C 3.390625 -5.53125 3.800781 -5.414062 4.1875 -5.1875 C 4.570312 -4.957031 4.878906 -4.644531 5.109375 -4.25 C 5.347656 -3.851562 5.46875 -3.40625 5.46875 -2.90625 Z M 2.953125 -4.625 C 2.566406 -4.625 2.234375 -4.515625 1.953125 -4.296875 C 1.671875 -4.078125 1.484375 -3.742188 1.390625 -3.296875 L 4.4375 -3.296875 L 4.4375 -3.375 C 4.40625 -3.738281 4.238281 -4.035156 3.9375 -4.265625 C 3.644531 -4.503906 3.316406 -4.625 2.953125 -4.625 Z M 2.953125 -4.625 "/></g></g></g><g fill="#000000" fill-opacity="1"><g transform="translate(219.939075, 213.661071)"><g><path d="M 3.484375 -5.53125 C 4.722656 -5.53125 5.34375 -4.785156 5.34375 -3.296875 L 5.34375 -0.5 C 5.34375 -0.351562 5.296875 -0.234375 5.203125 -0.140625 C 5.109375 -0.046875 4.988281 0 4.84375 0 C 4.707031 0 4.59375 -0.046875 4.5 -0.140625 C 4.40625 -0.234375 4.359375 -0.351562 4.359375 -0.5 L 4.359375 -3.296875 C 4.359375 -3.691406 4.265625 -4.007812 4.078125 -4.25 C 3.898438 -4.5 3.597656 -4.625 3.171875 -4.625 C 2.898438 -4.625 2.648438 -4.5625 2.421875 -4.4375 C 2.203125 -4.320312 2.03125 -4.160156 1.90625 -3.953125 C 1.78125 -3.753906 1.71875 -3.535156 1.71875 -3.296875 L 1.71875 -0.5 C 1.71875 -0.351562 1.671875 -0.234375 1.578125 -0.140625 C 1.484375 -0.046875 1.363281 0 1.21875 0 C 1.070312 0 0.953125 -0.046875 0.859375 -0.140625 C 0.773438 -0.234375 0.734375 -0.351562 0.734375 -0.5 L 0.734375 -4.90625 C 0.734375 -5.039062 0.78125 -5.15625 0.875 -5.25 C 0.96875 -5.351562 1.082031 -5.40625 1.21875 -5.40625 C 1.363281 -5.40625 1.484375 -5.351562 1.578125 -5.25 C 1.671875 -5.15625 1.71875 -5.039062 1.71875 -4.90625 L 1.71875 -4.546875 C 1.894531 -4.816406 2.140625 -5.046875 2.453125 -5.234375 C 2.773438 -5.429688 3.117188 -5.53125 3.484375 -5.53125 Z M 3.484375 -5.53125 "/></g></g></g><g fill="#000000" fill-opacity="1"><g transform="translate(228.696368, 213.661071)"><g><path d="M 2.203125 -4.4375 L 2.203125 -1.375 C 2.203125 -1.03125 2.351562 -0.859375 2.65625 -0.859375 C 2.707031 -0.859375 2.773438 -0.867188 2.859375 -0.890625 C 2.941406 -0.910156 3.003906 -0.921875 3.046875 -0.921875 C 3.140625 -0.921875 3.21875 -0.882812 3.28125 -0.8125 C 3.34375 -0.738281 3.375 -0.644531 3.375 -0.53125 C 3.375 -0.382812 3.289062 -0.257812 3.125 -0.15625 C 2.957031 -0.0507812 2.769531 0 2.5625 0 C 2.34375 0 2.132812 -0.0195312 1.9375 -0.0625 C 1.75 -0.113281 1.582031 -0.238281 1.4375 -0.4375 C 1.289062 -0.632812 1.21875 -0.929688 1.21875 -1.328125 L 1.21875 -4.4375 L 0.625 -4.4375 C 0.488281 -4.4375 0.378906 -4.476562 0.296875 -4.5625 C 0.210938 -4.65625 0.171875 -4.769531 0.171875 -4.90625 C 0.171875 -5.03125 0.210938 -5.132812 0.296875 -5.21875 C 0.378906 -5.300781 0.488281 -5.34375 0.625 -5.34375 L 1.21875 -5.34375 L 1.21875 -6.203125 C 1.21875 -6.347656 1.265625 -6.46875 1.359375 -6.5625 C 1.453125 -6.65625 1.570312 -6.703125 1.71875 -6.703125 C 1.851562 -6.703125 1.96875 -6.65625 2.0625 -6.5625 C 2.15625 -6.46875 2.203125 -6.347656 2.203125 -6.203125 L 2.203125 -5.34375 L 3.046875 -5.34375 C 3.179688 -5.34375 3.289062 -5.296875 3.375 -5.203125 C 3.457031 -5.117188 3.5 -5.015625 3.5 -4.890625 C 3.5 -4.753906 3.457031 -4.644531 3.375 -4.5625 C 3.289062 -4.476562 3.179688 -4.4375 3.046875 -4.4375 Z M 2.203125 -4.4375 "/></g></g></g><g fill="#000000" fill-opacity="1"><g transform="translate(235.30081, 213.661071)"><g><path d="M 3.421875 -5.53125 C 3.597656 -5.53125 3.75 -5.484375 3.875 -5.390625 C 4.007812 -5.296875 4.078125 -5.179688 4.078125 -5.046875 C 4.078125 -4.878906 4.035156 -4.75 3.953125 -4.65625 C 3.867188 -4.570312 3.765625 -4.53125 3.640625 -4.53125 C 3.578125 -4.53125 3.484375 -4.550781 3.359375 -4.59375 C 3.210938 -4.644531 3.097656 -4.671875 3.015625 -4.671875 C 2.804688 -4.671875 2.597656 -4.597656 2.390625 -4.453125 C 2.191406 -4.304688 2.03125 -4.101562 1.90625 -3.84375 C 1.78125 -3.582031 1.71875 -3.296875 1.71875 -2.984375 L 1.71875 -0.5 C 1.71875 -0.351562 1.671875 -0.234375 1.578125 -0.140625 C 1.484375 -0.046875 1.363281 0 1.21875 0 C 1.070312 0 0.953125 -0.046875 0.859375 -0.140625 C 0.773438 -0.234375 0.734375 -0.351562 0.734375 -0.5 L 0.734375 -4.90625 C 0.734375 -5.039062 0.78125 -5.15625 0.875 -5.25 C 0.96875 -5.351562 1.082031 -5.40625 1.21875 -5.40625 C 1.363281 -5.40625 1.484375 -5.351562 1.578125 -5.25 C 1.671875 -5.15625 1.71875 -5.039062 1.71875 -4.90625 L 1.71875 -4.390625 C 1.863281 -4.722656 2.085938 -4.992188 2.390625 -5.203125 C 2.691406 -5.410156 3.035156 -5.519531 3.421875 -5.53125 Z M 3.421875 -5.53125 "/></g></g></g><g fill="#000000" fill-opacity="1"><g transform="translate(242.245176, 213.661071)"><g><path d="M 1.65625 -0.5 C 1.65625 -0.351562 1.609375 -0.234375 1.515625 -0.140625 C 1.421875 -0.046875 1.304688 0 1.171875 0 C 1.023438 0 0.90625 -0.046875 0.8125 -0.140625 C 0.726562 -0.234375 0.6875 -0.351562 0.6875 -0.5 L 0.6875 -4.953125 C 0.6875 -5.097656 0.726562 -5.21875 0.8125 -5.3125 C 0.90625 -5.40625 1.023438 -5.453125 1.171875 -5.453125 C 1.304688 -5.453125 1.421875 -5.40625 1.515625 -5.3125 C 1.609375 -5.21875 1.65625 -5.097656 1.65625 -4.953125 Z M 1.15625 -6.140625 C 0.957031 -6.140625 0.816406 -6.175781 0.734375 -6.25 C 0.648438 -6.320312 0.609375 -6.4375 0.609375 -6.59375 L 0.609375 -6.75 C 0.609375 -6.914062 0.65625 -7.03125 0.75 -7.09375 C 0.84375 -7.164062 0.984375 -7.203125 1.171875 -7.203125 C 1.359375 -7.203125 1.492188 -7.164062 1.578125 -7.09375 C 1.671875 -7.019531 1.71875 -6.90625 1.71875 -6.75 L 1.71875 -6.59375 C 1.71875 -6.425781 1.671875 -6.304688 1.578125 -6.234375 C 1.492188 -6.171875 1.351562 -6.140625 1.15625 -6.140625 Z M 1.15625 -6.140625 "/></g></g></g><g fill="#000000" fill-opacity="1"><g transform="translate(247.273595, 213.661071)"><g><path d="M 3.078125 -5.53125 C 3.617188 -5.53125 4.070312 -5.441406 4.4375 -5.265625 C 4.800781 -5.097656 4.984375 -4.878906 4.984375 -4.609375 C 4.984375 -4.492188 4.941406 -4.390625 4.859375 -4.296875 C 4.785156 -4.203125 4.691406 -4.15625 4.578125 -4.15625 C 4.484375 -4.15625 4.410156 -4.164062 4.359375 -4.1875 C 4.316406 -4.21875 4.25 -4.265625 4.15625 -4.328125 C 4.113281 -4.367188 4.046875 -4.414062 3.953125 -4.46875 C 3.878906 -4.507812 3.765625 -4.546875 3.609375 -4.578125 C 3.453125 -4.609375 3.316406 -4.625 3.203125 -4.625 C 2.835938 -4.625 2.515625 -4.539062 2.234375 -4.375 C 1.960938 -4.207031 1.75 -3.976562 1.59375 -3.6875 C 1.445312 -3.394531 1.375 -3.070312 1.375 -2.71875 C 1.375 -2.351562 1.445312 -2.023438 1.59375 -1.734375 C 1.75 -1.441406 1.957031 -1.210938 2.21875 -1.046875 C 2.488281 -0.878906 2.796875 -0.796875 3.140625 -0.796875 C 3.503906 -0.796875 3.796875 -0.851562 4.015625 -0.96875 C 4.054688 -1 4.117188 -1.046875 4.203125 -1.109375 C 4.273438 -1.160156 4.335938 -1.195312 4.390625 -1.21875 C 4.441406 -1.25 4.503906 -1.265625 4.578125 -1.265625 C 4.710938 -1.265625 4.816406 -1.222656 4.890625 -1.140625 C 4.972656 -1.054688 5.015625 -0.941406 5.015625 -0.796875 C 5.015625 -0.660156 4.921875 -0.519531 4.734375 -0.375 C 4.554688 -0.238281 4.316406 -0.125 4.015625 -0.03125 C 3.710938 0.0625 3.382812 0.109375 3.03125 0.109375 C 2.507812 0.109375 2.046875 -0.0078125 1.640625 -0.25 C 1.242188 -0.5 0.9375 -0.835938 0.71875 -1.265625 C 0.507812 -1.703125 0.40625 -2.1875 0.40625 -2.71875 C 0.40625 -3.238281 0.515625 -3.710938 0.734375 -4.140625 C 0.960938 -4.578125 1.28125 -4.914062 1.6875 -5.15625 C 2.09375 -5.40625 2.554688 -5.53125 3.078125 -5.53125 Z M 3.078125 -5.53125 "/></g></g></g><g fill="#000000" fill-opacity="1"><g transform="translate(255.258344, 213.661071)"><g/></g></g><g fill="#000000" fill-opacity="1"><g transform="translate(260.801816, 213.661071)"><g><path d="M 3.4375 -5.5 C 3.90625 -5.5 4.328125 -5.378906 4.703125 -5.140625 C 5.085938 -4.898438 5.390625 -4.566406 5.609375 -4.140625 C 5.828125 -3.710938 5.9375 -3.234375 5.9375 -2.703125 C 5.9375 -2.160156 5.828125 -1.675781 5.609375 -1.25 C 5.390625 -0.832031 5.085938 -0.503906 4.703125 -0.265625 C 4.328125 -0.0234375 3.914062 0.09375 3.46875 0.09375 C 3.101562 0.09375 2.765625 0.015625 2.453125 -0.140625 C 2.148438 -0.296875 1.90625 -0.488281 1.71875 -0.71875 L 1.71875 1.5625 C 1.71875 1.707031 1.671875 1.828125 1.578125 1.921875 C 1.484375 2.015625 1.363281 2.0625 1.21875 2.0625 C 1.082031 2.0625 0.96875 2.015625 0.875 1.921875 C 0.78125 1.828125 0.734375 1.707031 0.734375 1.5625 L 0.734375 -4.921875 C 0.734375 -5.066406 0.773438 -5.1875 0.859375 -5.28125 C 0.953125 -5.375 1.070312 -5.421875 1.21875 -5.421875 C 1.363281 -5.421875 1.484375 -5.375 1.578125 -5.28125 C 1.671875 -5.1875 1.71875 -5.066406 1.71875 -4.921875 L 1.71875 -4.625 C 1.875 -4.863281 2.109375 -5.066406 2.421875 -5.234375 C 2.742188 -5.410156 3.082031 -5.5 3.4375 -5.5 Z M 3.328125 -0.8125 C 3.648438 -0.8125 3.9375 -0.894531 4.1875 -1.0625 C 4.4375 -1.226562 4.628906 -1.453125 4.765625 -1.734375 C 4.910156 -2.023438 4.984375 -2.347656 4.984375 -2.703125 C 4.984375 -3.054688 4.910156 -3.375 4.765625 -3.65625 C 4.628906 -3.945312 4.4375 -4.175781 4.1875 -4.34375 C 3.9375 -4.507812 3.648438 -4.59375 3.328125 -4.59375 C 3.003906 -4.59375 2.710938 -4.507812 2.453125 -4.34375 C 2.203125 -4.1875 2.003906 -3.960938 1.859375 -3.671875 C 1.722656 -3.378906 1.65625 -3.054688 1.65625 -2.703125 C 1.65625 -2.347656 1.722656 -2.023438 1.859375 -1.734375 C 2.003906 -1.441406 2.203125 -1.210938 2.453125 -1.046875 C 2.710938 -0.890625 3.003906 -0.8125 3.328125 -0.8125 Z M 3.328125 -0.8125 "/></g></g></g><g fill="#000000" fill-opacity="1"><g transform="translate(269.816647, 213.661071)"><g><path d="M 1.796875 -0.5 C 1.796875 -0.351562 1.742188 -0.234375 1.640625 -0.140625 C 1.546875 -0.046875 1.429688 0 1.296875 0 C 1.160156 0 1.046875 -0.046875 0.953125 -0.140625 C 0.859375 -0.234375 0.8125 -0.351562 0.8125 -0.5 L 0.8125 -7.140625 C 0.8125 -7.273438 0.859375 -7.390625 0.953125 -7.484375 C 1.054688 -7.578125 1.175781 -7.625 1.3125 -7.625 C 1.445312 -7.625 1.5625 -7.578125 1.65625 -7.484375 C 1.75 -7.390625 1.796875 -7.273438 1.796875 -7.140625 Z M 1.796875 -0.5 "/></g></g></g><g fill="#000000" fill-opacity="1"><g transform="translate(275.112903, 213.661071)"><g><path d="M 5.109375 -5.46875 C 5.253906 -5.46875 5.375 -5.421875 5.46875 -5.328125 C 5.5625 -5.242188 5.609375 -5.125 5.609375 -4.96875 L 5.609375 -0.5 C 5.609375 -0.351562 5.5625 -0.234375 5.46875 -0.140625 C 5.375 -0.046875 5.253906 0 5.109375 0 C 4.972656 0 4.859375 -0.046875 4.765625 -0.140625 C 4.671875 -0.234375 4.625 -0.351562 4.625 -0.5 L 4.625 -0.765625 C 4.445312 -0.523438 4.203125 -0.316406 3.890625 -0.140625 C 3.585938 0.0234375 3.253906 0.109375 2.890625 0.109375 C 2.429688 0.109375 2.007812 -0.0078125 1.625 -0.25 C 1.238281 -0.5 0.9375 -0.835938 0.71875 -1.265625 C 0.507812 -1.691406 0.40625 -2.175781 0.40625 -2.71875 C 0.40625 -3.25 0.507812 -3.726562 0.71875 -4.15625 C 0.9375 -4.59375 1.234375 -4.929688 1.609375 -5.171875 C 1.992188 -5.410156 2.410156 -5.53125 2.859375 -5.53125 C 3.222656 -5.53125 3.5625 -5.453125 3.875 -5.296875 C 4.195312 -5.148438 4.445312 -4.957031 4.625 -4.71875 L 4.625 -4.96875 C 4.625 -5.113281 4.671875 -5.234375 4.765625 -5.328125 C 4.859375 -5.421875 4.972656 -5.46875 5.109375 -5.46875 Z M 3.015625 -0.796875 C 3.335938 -0.796875 3.625 -0.878906 3.875 -1.046875 C 4.125 -1.210938 4.316406 -1.441406 4.453125 -1.734375 C 4.597656 -2.023438 4.671875 -2.351562 4.671875 -2.71875 C 4.671875 -3.070312 4.597656 -3.390625 4.453125 -3.671875 C 4.316406 -3.960938 4.125 -4.191406 3.875 -4.359375 C 3.625 -4.535156 3.335938 -4.625 3.015625 -4.625 C 2.691406 -4.625 2.40625 -4.539062 2.15625 -4.375 C 1.90625 -4.207031 1.707031 -3.976562 1.5625 -3.6875 C 1.414062 -3.40625 1.34375 -3.082031 1.34375 -2.71875 C 1.34375 -2.351562 1.414062 -2.023438 1.5625 -1.734375 C 1.707031 -1.441406 1.90625 -1.210938 2.15625 -1.046875 C 2.40625 -0.878906 2.691406 -0.796875 3.015625 -0.796875 Z M 3.015625 -0.796875 "/></g></g></g><g fill="#000000" fill-opacity="1"><g transform="translate(284.127734, 213.661071)"><g><path d="M 2.203125 -4.4375 L 2.203125 -1.375 C 2.203125 -1.03125 2.351562 -0.859375 2.65625 -0.859375 C 2.707031 -0.859375 2.773438 -0.867188 2.859375 -0.890625 C 2.941406 -0.910156 3.003906 -0.921875 3.046875 -0.921875 C 3.140625 -0.921875 3.21875 -0.882812 3.28125 -0.8125 C 3.34375 -0.738281 3.375 -0.644531 3.375 -0.53125 C 3.375 -0.382812 3.289062 -0.257812 3.125 -0.15625 C 2.957031 -0.0507812 2.769531 0 2.5625 0 C 2.34375 0 2.132812 -0.0195312 1.9375 -0.0625 C 1.75 -0.113281 1.582031 -0.238281 1.4375 -0.4375 C 1.289062 -0.632812 1.21875 -0.929688 1.21875 -1.328125 L 1.21875 -4.4375 L 0.625 -4.4375 C 0.488281 -4.4375 0.378906 -4.476562 0.296875 -4.5625 C 0.210938 -4.65625 0.171875 -4.769531 0.171875 -4.90625 C 0.171875 -5.03125 0.210938 -5.132812 0.296875 -5.21875 C 0.378906 -5.300781 0.488281 -5.34375 0.625 -5.34375 L 1.21875 -5.34375 L 1.21875 -6.203125 C 1.21875 -6.347656 1.265625 -6.46875 1.359375 -6.5625 C 1.453125 -6.65625 1.570312 -6.703125 1.71875 -6.703125 C 1.851562 -6.703125 1.96875 -6.65625 2.0625 -6.5625 C 2.15625 -6.46875 2.203125 -6.347656 2.203125 -6.203125 L 2.203125 -5.34375 L 3.046875 -5.34375 C 3.179688 -5.34375 3.289062 -5.296875 3.375 -5.203125 C 3.457031 -5.117188 3.5 -5.015625 3.5 -4.890625 C 3.5 -4.753906 3.457031 -4.644531 3.375 -4.5625 C 3.289062 -4.476562 3.179688 -4.4375 3.046875 -4.4375 Z M 2.203125 -4.4375 "/></g></g></g><g fill="#000000" fill-opacity="1"><g transform="translate(290.732188, 213.661071)"><g><path d="M 3.046875 -6.75 C 2.816406 -6.75 2.644531 -6.675781 2.53125 -6.53125 C 2.425781 -6.394531 2.375 -6.226562 2.375 -6.03125 L 2.375 -5.3125 L 3.40625 -5.3125 C 3.539062 -5.3125 3.648438 -5.265625 3.734375 -5.171875 C 3.828125 -5.085938 3.875 -4.984375 3.875 -4.859375 C 3.875 -4.722656 3.828125 -4.613281 3.734375 -4.53125 C 3.648438 -4.445312 3.539062 -4.40625 3.40625 -4.40625 L 2.375 -4.40625 L 2.375 -0.5 C 2.375 -0.351562 2.328125 -0.234375 2.234375 -0.140625 C 2.148438 -0.046875 2.035156 0 1.890625 0 C 1.753906 0 1.640625 -0.046875 1.546875 -0.140625 C 1.453125 -0.234375 1.40625 -0.351562 1.40625 -0.5 L 1.40625 -4.40625 L 0.765625 -4.40625 C 0.628906 -4.40625 0.515625 -4.445312 0.421875 -4.53125 C 0.335938 -4.613281 0.296875 -4.722656 0.296875 -4.859375 C 0.296875 -4.984375 0.335938 -5.085938 0.421875 -5.171875 C 0.515625 -5.265625 0.628906 -5.3125 0.765625 -5.3125 L 1.40625 -5.3125 L 1.40625 -6.03125 C 1.40625 -6.507812 1.554688 -6.890625 1.859375 -7.171875 C 2.171875 -7.460938 2.609375 -7.609375 3.171875 -7.609375 C 3.410156 -7.609375 3.617188 -7.566406 3.796875 -7.484375 C 3.972656 -7.398438 4.0625 -7.269531 4.0625 -7.09375 C 4.0625 -6.96875 4.019531 -6.859375 3.9375 -6.765625 C 3.863281 -6.679688 3.769531 -6.640625 3.65625 -6.640625 C 3.632812 -6.640625 3.5625 -6.65625 3.4375 -6.6875 C 3.28125 -6.726562 3.148438 -6.75 3.046875 -6.75 Z M 3.046875 -6.75 "/></g></g></g><g fill="#000000" fill-opacity="1"><g transform="translate(297.439638, 213.661071)"><g><path d="M 5.84375 -2.703125 C 5.84375 -2.160156 5.722656 -1.675781 5.484375 -1.25 C 5.242188 -0.832031 4.914062 -0.5 4.5 -0.25 C 4.082031 -0.0078125 3.625 0.109375 3.125 0.109375 C 2.625 0.109375 2.164062 -0.0078125 1.75 -0.25 C 1.332031 -0.5 1.003906 -0.832031 0.765625 -1.25 C 0.523438 -1.675781 0.40625 -2.160156 0.40625 -2.703125 C 0.40625 -3.234375 0.523438 -3.71875 0.765625 -4.15625 C 1.003906 -4.59375 1.332031 -4.929688 1.75 -5.171875 C 2.164062 -5.410156 2.625 -5.53125 3.125 -5.53125 C 3.625 -5.53125 4.082031 -5.410156 4.5 -5.171875 C 4.914062 -4.929688 5.242188 -4.59375 5.484375 -4.15625 C 5.722656 -3.71875 5.84375 -3.234375 5.84375 -2.703125 Z M 4.875 -2.703125 C 4.875 -3.078125 4.796875 -3.410156 4.640625 -3.703125 C 4.484375 -3.992188 4.269531 -4.21875 4 -4.375 C 3.738281 -4.539062 3.445312 -4.625 3.125 -4.625 C 2.800781 -4.625 2.503906 -4.539062 2.234375 -4.375 C 1.972656 -4.21875 1.765625 -3.992188 1.609375 -3.703125 C 1.453125 -3.410156 1.375 -3.078125 1.375 -2.703125 C 1.375 -2.335938 1.453125 -2.007812 1.609375 -1.71875 C 1.765625 -1.4375 1.972656 -1.210938 2.234375 -1.046875 C 2.503906 -0.878906 2.800781 -0.796875 3.125 -0.796875 C 3.445312 -0.796875 3.738281 -0.878906 4 -1.046875 C 4.269531 -1.210938 4.484375 -1.4375 4.640625 -1.71875 C 4.796875 -2.007812 4.875 -2.335938 4.875 -2.703125 Z M 4.875 -2.703125 "/></g></g></g><g fill="#000000" fill-opacity="1"><g transform="translate(306.372049, 213.661071)"><g><path d="M 3.421875 -5.53125 C 3.597656 -5.53125 3.75 -5.484375 3.875 -5.390625 C 4.007812 -5.296875 4.078125 -5.179688 4.078125 -5.046875 C 4.078125 -4.878906 4.035156 -4.75 3.953125 -4.65625 C 3.867188 -4.570312 3.765625 -4.53125 3.640625 -4.53125 C 3.578125 -4.53125 3.484375 -4.550781 3.359375 -4.59375 C 3.210938 -4.644531 3.097656 -4.671875 3.015625 -4.671875 C 2.804688 -4.671875 2.597656 -4.597656 2.390625 -4.453125 C 2.191406 -4.304688 2.03125 -4.101562 1.90625 -3.84375 C 1.78125 -3.582031 1.71875 -3.296875 1.71875 -2.984375 L 1.71875 -0.5 C 1.71875 -0.351562 1.671875 -0.234375 1.578125 -0.140625 C 1.484375 -0.046875 1.363281 0 1.21875 0 C 1.070312 0 0.953125 -0.046875 0.859375 -0.140625 C 0.773438 -0.234375 0.734375 -0.351562 0.734375 -0.5 L 0.734375 -4.90625 C 0.734375 -5.039062 0.78125 -5.15625 0.875 -5.25 C 0.96875 -5.351562 1.082031 -5.40625 1.21875 -5.40625 C 1.363281 -5.40625 1.484375 -5.351562 1.578125 -5.25 C 1.671875 -5.15625 1.71875 -5.039062 1.71875 -4.90625 L 1.71875 -4.390625 C 1.863281 -4.722656 2.085938 -4.992188 2.390625 -5.203125 C 2.691406 -5.410156 3.035156 -5.519531 3.421875 -5.53125 Z M 3.421875 -5.53125 "/></g></g></g><g fill="#000000" fill-opacity="1"><g transform="translate(313.316415, 213.661071)"><g><path d="M 6.9375 -5.5 C 8.132812 -5.5 8.734375 -4.75 8.734375 -3.25 L 8.734375 -0.5 C 8.734375 -0.351562 8.6875 -0.234375 8.59375 -0.140625 C 8.507812 -0.046875 8.394531 0 8.25 0 C 8.101562 0 7.984375 -0.046875 7.890625 -0.140625 C 7.796875 -0.234375 7.75 -0.351562 7.75 -0.5 L 7.75 -3.234375 C 7.75 -4.140625 7.375 -4.59375 6.625 -4.59375 C 6.351562 -4.59375 6.109375 -4.53125 5.890625 -4.40625 C 5.671875 -4.289062 5.5 -4.128906 5.375 -3.921875 C 5.257812 -3.710938 5.203125 -3.484375 5.203125 -3.234375 L 5.203125 -0.5 C 5.203125 -0.351562 5.15625 -0.234375 5.0625 -0.140625 C 4.96875 -0.046875 4.851562 0 4.71875 0 C 4.570312 0 4.453125 -0.046875 4.359375 -0.140625 C 4.273438 -0.234375 4.234375 -0.351562 4.234375 -0.5 L 4.234375 -3.25 C 4.234375 -3.65625 4.144531 -3.976562 3.96875 -4.21875 C 3.800781 -4.46875 3.515625 -4.59375 3.109375 -4.59375 C 2.703125 -4.59375 2.367188 -4.460938 2.109375 -4.203125 C 1.847656 -3.941406 1.71875 -3.625 1.71875 -3.25 L 1.71875 -0.5 C 1.71875 -0.351562 1.671875 -0.234375 1.578125 -0.140625 C 1.484375 -0.046875 1.363281 0 1.21875 0 C 1.070312 0 0.953125 -0.046875 0.859375 -0.140625 C 0.773438 -0.234375 0.734375 -0.351562 0.734375 -0.5 L 0.734375 -4.90625 C 0.734375 -5.039062 0.78125 -5.15625 0.875 -5.25 C 0.96875 -5.351562 1.082031 -5.40625 1.21875 -5.40625 C 1.363281 -5.40625 1.484375 -5.351562 1.578125 -5.25 C 1.671875 -5.15625 1.71875 -5.039062 1.71875 -4.90625 L 1.71875 -4.546875 C 1.894531 -4.816406 2.128906 -5.039062 2.421875 -5.21875 C 2.722656 -5.40625 3.050781 -5.5 3.40625 -5.5 C 4.257812 -5.5 4.8125 -5.117188 5.0625 -4.359375 C 5.21875 -4.648438 5.46875 -4.910156 5.8125 -5.140625 C 6.164062 -5.378906 6.539062 -5.5 6.9375 -5.5 Z M 6.9375 -5.5 "/></g></g></g></svg>